<svg width="144" height="144" viewBox="0 0 144 144" fill="none" xmlns="http://www.w3.org/2000/svg">
<rect width="144" height="144" fill="#D9D9D9"/>
<path d="M71.9999 72C82.5865 72 91.1666 63.4199 91.1666 52.8334C91.1666 42.2468 82.5865 33.6667 71.9999 33.6667C61.4133 33.6667 52.8333 42.2468 52.8333 52.8334C52.8333 63.4199 61.4133 72 71.9999 72ZM85.4166 76.7917H82.9159C79.5917 78.319 75.8931 79.1875 71.9999 79.1875C68.1067 79.1875 64.4231 78.319 61.0839 76.7917H58.5833C47.4726 76.7917 38.4583 85.806 38.4583 96.9167V103.146C38.4583 107.114 41.6777 110.333 45.6458 110.333H98.3541C102.322 110.333 105.542 107.114 105.542 103.146V96.9167C105.542 85.806 96.5273 76.7917 85.4166 76.7917Z" fill="#A3A3A3"/>
</svg>
